# xmcd
#
# Track frame offsets:
#	150
#	18967
#	34282
#	49122
#	64927
#	80410
#	97242
#	111275
#	126462
#	143167
#	161015
#	179807
#	197745
#	212405
#	229170
#	248325
#	263775
#	285637
#
# Disc length: 4032
#
# Revision: 1
# Processed by: cddbd v1.5.1PL0 Copyright (c) Steve Scherf et al.
# Submitted via: VisiTrax 2.9.5.180 - For more info visit www.synapsa.com
# Normalized: r0:DSETVAR1
#
DISCID=0b0fbe12
DTITLE=Various Artist - Music city Now volume III
DYEAR=1900
DGENRE=
TTITLE0=Marcus Hummon - Bless the broken road
TTITLE1=Mavericks - Blue moon
TTITLE2=Alison Krauss - Everytime you say goodbye
TTITLE3=Helen Darling - I haven't found it yet
TTITLE4=Tim McGraw - I like it, I love it
TTITLE5=John Berry - If I had any pride left at all
TTITLE6=Tracy Lawrence - If the world had a front porch
TTITLE7=Carlene Carter - Love like this
TTITLE8=Celinda Pink - Me and Bobby McGee
TTITLE9=Collin Raye - Not that different
TTITLE10=Dwight Yoakam - Please, please bab
TTITLE11=Bryan White - Rebecca Lynn
TTITLE12=Martina McBride - Safe in the arms of love
TTITLE13=Toby Keith - Santa, I'm right here
TTITLE14=Tim O'Brien - She's running away
TTITLE15=Lonestar - Tequila talkin'
TTITLE16=Shania Twain - The woman in me needs the man in you
TTITLE17=Lee Roy Parnell - When a woman loves a man
EXTD=
EXTT0=
EXTT1=
EXTT2=
EXTT3=
EXTT4=
EXTT5=
EXTT6=
EXTT7=
EXTT8=
EXTT9=
EXTT10=
EXTT11=
EXTT12=
EXTT13=
EXTT14=
EXTT15=
EXTT16=
EXTT17=
PLAYORDER=
